#Comment line ignore any data following # character 
#Hierarchical Translation and Rotation (.htr) file 
[Header]	
#Header keywords are followed by a single value 
FileType HTR		#Single word string
DataType HTRS		#Translation followed by rotation and scale data
FileVersion 1		#integer
NumSegments 84		#integer
NumFrames 2		#integer
DataFrameRate 30		#integer, data frame rate in this file
EulerRotationOrder ZYX
CalibrationUnits mm
RotationUnits Degrees
GlobalAxisofGravity Y
BoneLengthAxis Y
ScaleFactor 1.00
[SegmentNames&Hierarchy]
#CHILD	PARENT
MASTER GLOBAL
root MASTER
chest root
L_mid_tent01 root
R_mid_tent01 root
spine01 root
Bip01_Neck chest
L_humerus chest
R_humerus chest
weapon_bone chest
Bip01_Head Bip01_Neck
eye_left_bone Bip01_Head
eye_right_bone Bip01_Head
L_forearm L_humerus
L_front_hand L_forearm
L_weapon_bone L_forearm
L_front_hand01_01 L_front_hand
L_front_hand02_01 L_front_hand
L_front_hand03_01 L_front_hand
L_front_hand01_02 L_front_hand01_01
L_front_hand02_02 L_front_hand02_01
L_front_hand03_02 L_front_hand03_01
R_forearm R_humerus
R_front_hand R_forearm
R_weapon_bone R_forearm
R_front_hand01_01 R_front_hand
R_front_hand02_01 R_front_hand
R_front_hand03_01 R_front_hand
R_front_hand01_02 R_front_hand01_01
R_front_hand02_02 R_front_hand02_01
R_front_hand03_02 R_front_hand03_01
null_rope01_connect L_mid_tent01
Rope1_Seg01 null_rope01_connect
Rope1_Seg02 Rope1_Seg01
Rope1_Seg03 Rope1_Seg02
Rope1_Seg04 Rope1_Seg03
Rope1_Seg05 Rope1_Seg04
Rope1_Seg06 Rope1_Seg05
Rope1_Seg07 Rope1_Seg06
Rope1_Seg09 Rope1_Seg07
L_mid_hand01 Rope1_Seg09
L_mid_hand02 Rope1_Seg09
L_mid_hand03 Rope1_Seg09
null_rope02_connect R_mid_tent01
Rope2_Seg01 null_rope02_connect
Rope2_Seg02 Rope2_Seg01
Rope2_Seg03 Rope2_Seg02
Rope2_Seg04 Rope2_Seg03
Rope2_Seg05 Rope2_Seg04
Rope2_Seg06 Rope2_Seg05
Rope2_Seg07 Rope2_Seg06
Rope2_Seg09 Rope2_Seg07
R_mid_hand01 Rope2_Seg09
R_mid_hand02 Rope2_Seg09
R_mid_hand03 Rope2_Seg09
spine02 spine01
spine03 spine02
pelvis spine03
null_rope03_connect pelvis
null_rope04_connect pelvis
Rope3_Seg01 null_rope03_connect
Rope3_Seg02 Rope3_Seg01
Rope3_Seg03 Rope3_Seg02
Rope3_Seg04 Rope3_Seg03
Rope3_Seg05 Rope3_Seg04
Rope3_Seg06 Rope3_Seg05
Rope3_Seg07 Rope3_Seg06
Rope3_Seg08 Rope3_Seg07
Rope3_Seg09 Rope3_Seg08
R_rear_hand01 Rope3_Seg09
R_rear_hand02 Rope3_Seg09
R_rear_hand03 Rope3_Seg09
Rope4_Seg01 null_rope04_connect
Rope4_Seg02 Rope4_Seg01
Rope4_Seg03 Rope4_Seg02
Rope4_Seg04 Rope4_Seg03
Rope4_Seg05 Rope4_Seg04
Rope4_Seg06 Rope4_Seg05
Rope4_Seg07 Rope4_Seg06
Rope4_Seg08 Rope4_Seg07
Rope4_Seg09 Rope4_Seg08
L_rear_hand01 Rope4_Seg09
L_rear_hand02 Rope4_Seg09
L_rear_hand03 Rope4_Seg09
[BasePosition]
#SegmentName Tx, Ty, Tz, Rx, Ry, Rz, BoneLength
MASTER 0.000000 0.000000 0.000000 -90.000000 0.000000 0.000000 10.000000 
root 0.000000 0.000000 0.000000 0.000000 0.000000 0.000000 10.000000 
chest 0.000000 0.000000 0.000000 0.000000 0.000000 0.000000 10.000000 
L_mid_tent01 0.000000 0.000000 0.000000 0.000000 0.000000 0.000000 10.000000 
R_mid_tent01 0.000000 0.000000 0.000000 0.000000 0.000000 0.000000 10.000000 
spine01 0.000000 0.000000 0.000000 0.000000 0.000000 0.000000 10.000000 
Bip01_Neck 0.000000 0.000000 0.000000 0.000000 0.000000 0.000000 10.000000 
L_humerus 0.000000 0.000000 0.000000 0.000000 0.000000 0.000000 10.000000 
R_humerus 0.000000 0.000000 0.000000 0.000000 0.000000 0.000000 10.000000 
weapon_bone 0.000000 0.000000 0.000000 0.000000 0.000000 0.000000 10.000000 
Bip01_Head 0.000000 0.000000 0.000000 0.000000 0.000000 0.000000 10.000000 
eye_left_bone 0.000000 0.000000 0.000000 0.000000 0.000000 0.000000 10.000000 
eye_right_bone 0.000000 0.000000 0.000000 0.000000 0.000000 0.000000 10.000000 
L_forearm 0.000000 0.000000 0.000000 0.000000 0.000000 0.000000 10.000000 
L_front_hand 0.000000 0.000000 0.000000 0.000000 0.000000 0.000000 10.000000 
L_weapon_bone 0.000000 0.000000 0.000000 0.000000 0.000000 0.000000 10.000000 
L_front_hand01_01 0.000000 0.000000 0.000000 0.000000 0.000000 0.000000 10.000000 
L_front_hand02_01 0.000000 0.000000 0.000000 0.000000 0.000000 0.000000 10.000000 
L_front_hand03_01 0.000000 0.000000 0.000000 0.000000 0.000000 0.000000 10.000000 
L_front_hand01_02 0.000000 0.000000 0.000000 0.000000 0.000000 0.000000 10.000000 
L_front_hand02_02 0.000000 0.000000 0.000000 0.000000 0.000000 0.000000 10.000000 
L_front_hand03_02 0.000000 0.000000 0.000000 0.000000 0.000000 0.000000 10.000000 
R_forearm 0.000000 0.000000 0.000000 0.000000 0.000000 0.000000 10.000000 
R_front_hand 0.000000 0.000000 0.000000 0.000000 0.000000 0.000000 10.000000 
R_weapon_bone 0.000000 0.000000 0.000000 0.000000 0.000000 0.000000 10.000000 
R_front_hand01_01 0.000000 0.000000 0.000000 0.000000 0.000000 0.000000 10.000000 
R_front_hand02_01 0.000000 0.000000 0.000000 0.000000 0.000000 0.000000 10.000000 
R_front_hand03_01 0.000000 0.000000 0.000000 0.000000 0.000000 0.000000 10.000000 
R_front_hand01_02 0.000000 0.000000 0.000000 0.000000 0.000000 0.000000 10.000000 
R_front_hand02_02 0.000000 0.000000 0.000000 0.000000 0.000000 0.000000 10.000000 
R_front_hand03_02 0.000000 0.000000 0.000000 0.000000 0.000000 0.000000 10.000000 
null_rope01_connect 0.000000 0.000000 0.000000 0.000000 0.000000 0.000000 10.000000 
Rope1_Seg01 0.000000 0.000000 0.000000 0.000000 0.000000 0.000000 10.000000 
Rope1_Seg02 0.000000 0.000000 0.000000 0.000000 0.000000 0.000000 10.000000 
Rope1_Seg03 0.000000 0.000000 0.000000 0.000000 0.000000 0.000000 10.000000 
Rope1_Seg04 0.000000 0.000000 0.000000 0.000000 0.000000 0.000000 10.000000 
Rope1_Seg05 0.000000 0.000000 0.000000 0.000000 0.000000 0.000000 10.000000 
Rope1_Seg06 0.000000 0.000000 0.000000 0.000000 0.000000 0.000000 10.000000 
Rope1_Seg07 0.000000 0.000000 0.000000 0.000000 0.000000 0.000000 10.000000 
Rope1_Seg09 0.000000 0.000000 0.000000 0.000000 0.000000 0.000000 10.000000 
L_mid_hand01 0.000000 0.000000 0.000000 0.000000 0.000000 0.000000 10.000000 
L_mid_hand02 0.000000 0.000000 0.000000 0.000000 0.000000 0.000000 10.000000 
L_mid_hand03 0.000000 0.000000 0.000000 0.000000 0.000000 0.000000 10.000000 
null_rope02_connect 0.000000 0.000000 0.000000 0.000000 0.000000 0.000000 10.000000 
Rope2_Seg01 0.000000 0.000000 0.000000 0.000000 0.000000 0.000000 10.000000 
Rope2_Seg02 0.000000 0.000000 0.000000 0.000000 0.000000 0.000000 10.000000 
Rope2_Seg03 0.000000 0.000000 0.000000 0.000000 0.000000 0.000000 10.000000 
Rope2_Seg04 0.000000 0.000000 0.000000 0.000000 0.000000 0.000000 10.000000 
Rope2_Seg05 0.000000 0.000000 0.000000 0.000000 0.000000 0.000000 10.000000 
Rope2_Seg06 0.000000 0.000000 0.000000 0.000000 0.000000 0.000000 10.000000 
Rope2_Seg07 0.000000 0.000000 0.000000 0.000000 0.000000 0.000000 10.000000 
Rope2_Seg09 0.000000 0.000000 0.000000 0.000000 0.000000 0.000000 10.000000 
R_mid_hand01 0.000000 0.000000 0.000000 0.000000 0.000000 0.000000 10.000000 
R_mid_hand02 0.000000 0.000000 0.000000 0.000000 0.000000 0.000000 10.000000 
R_mid_hand03 0.000000 0.000000 0.000000 0.000000 0.000000 0.000000 10.000000 
spine02 0.000000 0.000000 0.000000 0.000000 0.000000 0.000000 10.000000 
spine03 0.000000 0.000000 0.000000 0.000000 0.000000 0.000000 10.000000 
pelvis 0.000000 0.000000 0.000000 0.000000 0.000000 0.000000 10.000000 
null_rope03_connect 0.000000 0.000000 0.000000 0.000000 0.000000 0.000000 10.000000 
null_rope04_connect 0.000000 0.000000 0.000000 0.000000 0.000000 0.000000 10.000000 
Rope3_Seg01 0.000000 0.000000 0.000000 0.000000 0.000000 0.000000 10.000000 
Rope3_Seg02 0.000000 0.000000 0.000000 0.000000 0.000000 0.000000 10.000000 
Rope3_Seg03 0.000000 0.000000 0.000000 0.000000 0.000000 0.000000 10.000000 
Rope3_Seg04 0.000000 0.000000 0.000000 0.000000 0.000000 0.000000 10.000000 
Rope3_Seg05 0.000000 0.000000 0.000000 0.000000 0.000000 0.000000 10.000000 
Rope3_Seg06 0.000000 0.000000 0.000000 0.000000 0.000000 0.000000 10.000000 
Rope3_Seg07 0.000000 0.000000 0.000000 0.000000 0.000000 0.000000 10.000000 
Rope3_Seg08 0.000000 0.000000 0.000000 0.000000 0.000000 0.000000 10.000000 
Rope3_Seg09 0.000000 0.000000 0.000000 0.000000 0.000000 0.000000 10.000000 
R_rear_hand01 0.000000 0.000000 0.000000 0.000000 0.000000 0.000000 10.000000 
R_rear_hand02 0.000000 0.000000 0.000000 0.000000 0.000000 0.000000 10.000000 
R_rear_hand03 0.000000 0.000000 0.000000 0.000000 0.000000 0.000000 10.000000 
Rope4_Seg01 0.000000 0.000000 0.000000 0.000000 0.000000 0.000000 10.000000 
Rope4_Seg02 0.000000 0.000000 0.000000 0.000000 0.000000 0.000000 10.000000 
Rope4_Seg03 0.000000 0.000000 0.000000 0.000000 0.000000 0.000000 10.000000 
Rope4_Seg04 0.000000 0.000000 0.000000 0.000000 0.000000 0.000000 10.000000 
Rope4_Seg05 0.000000 0.000000 0.000000 0.000000 0.000000 0.000000 10.000000 
Rope4_Seg06 0.000000 0.000000 0.000000 0.000000 0.000000 0.000000 10.000000 
Rope4_Seg07 0.000000 0.000000 0.000000 0.000000 0.000000 0.000000 10.000000 
Rope4_Seg08 0.000000 0.000000 0.000000 0.000000 0.000000 0.000000 10.000000 
Rope4_Seg09 0.000000 0.000000 0.000000 0.000000 0.000000 0.000000 10.000000 
L_rear_hand01 0.000000 0.000000 0.000000 0.000000 0.000000 0.000000 10.000000 
L_rear_hand02 0.000000 0.000000 0.000000 0.000000 0.000000 0.000000 10.000000 
L_rear_hand03 0.000000 0.000000 0.000000 0.000000 0.000000 0.000000 10.000000 
#Beginning of Data. Separated by tabs
#Fr	Tx	Ty	Tz	Rx	Ry	Rz	SF
[MASTER]
13 -0.000224 1500.000000 0.000000 0.001660 0.001660 0.001660 1500.000000
14 -0.000243 1625.000000 0.000000 0.001660 0.001660 0.001660 1625.000000
[root]
13 -14.136775 -78.814850 1459.337891 -91.728897 -11.584496 -89.471619 1461.532837
14 -16.154478 -78.138123 1459.593140 -91.728889 -11.584497 -89.471619 1461.772461
[chest]
13 -84.512650 -34.090519 0.000000 -2.188541 -0.136780 166.470261 91.129311
14 -84.512650 -34.090519 0.000000 -2.188536 -0.136875 166.465286 91.129311
[L_mid_tent01]
13 27.299101 22.179258 -249.918686 -20.390339 7.967148 14.524396 252.381683
14 27.299103 22.179258 -249.918686 -20.380362 7.705955 14.625539 252.381683
[R_mid_tent01]
13 23.228794 24.509907 226.238495 -165.680389 -10.545044 26.042093 228.744751
14 23.228794 24.509907 226.238495 -165.706543 -10.069957 26.165625 228.744751
[spine01]
13 -0.361383 -0.195265 0.000000 0.001956 0.001298 22.868690 0.410763
14 -0.361383 -0.195265 0.000000 0.001956 0.001298 22.873734 0.410763
[Bip01_Neck]
13 165.484543 71.581718 0.000119 176.643677 -1.657967 43.431911 180.302734
14 165.484543 71.581718 0.000119 176.643677 -1.657967 43.431911 180.302734
[L_humerus]
13 -13.983130 -135.272980 -120.471481 -179.639694 36.295231 -88.732315 181.680161
14 -13.983130 -135.272980 -120.471481 179.846848 29.660175 -89.116455 181.680161
[R_humerus]
13 -13.983309 -135.273102 125.287651 178.369553 -38.144020 -81.703178 184.909012
14 -13.983309 -135.273102 125.287651 179.611664 -31.925909 -82.867256 184.909012
[weapon_bone]
13 235.964890 -300.705902 0.000000 0.000000 -89.951546 -128.212341 382.234833
14 235.964890 -300.705902 0.000000 0.000000 -89.951546 -128.212341 382.234833
[Bip01_Head]
13 213.519012 185.507095 14.467342 4.982295 8.427112 -43.807419 283.218201
14 213.553238 185.411758 15.697142 4.977909 7.630985 -43.830528 283.247070
[eye_left_bone]
13 -24.626970 125.451866 -64.772606 0.000000 -90.000000 -99.840431 143.318359
14 -24.626970 125.451866 -64.772606 0.000000 -90.000000 -99.840431 143.318359
[eye_right_bone]
13 -24.626970 125.451866 64.327362 0.000000 -89.965736 80.156380 143.117676
14 -24.626970 125.451866 64.327362 0.000000 -89.965736 80.156380 143.117676
[L_forearm]
13 322.776093 0.000000 -0.000119 0.000432 -0.002307 -111.188736 322.776093
14 322.776093 0.000000 -0.000119 0.000432 -0.002307 -111.209717 322.776093
[L_front_hand]
13 241.149185 -0.042021 -3.300071 -178.667953 -1.835447 -27.422350 241.171753
14 241.149185 -0.042021 -3.300071 -178.667953 -1.835447 -27.422342 241.171753
[L_weapon_bone]
13 156.183838 0.000000 0.000000 0.000014 0.000007 0.000001 156.183838
14 156.183838 0.000000 0.000000 0.000014 0.000007 0.000001 156.183838
[L_front_hand01_01]
13 86.095154 20.947098 -0.655860 -0.273295 -0.533469 64.985298 88.609184
14 86.095154 20.947098 -0.655860 -0.273650 -0.533287 65.061523 88.609184
[L_front_hand02_01]
13 86.935165 -11.437475 24.513514 140.772385 -54.262844 -45.183468 91.046425
14 86.935165 -11.437475 24.513514 140.858566 -54.305298 -45.287003 91.046425
[L_front_hand03_01]
13 86.637497 -14.123976 -20.424902 -141.183044 52.494118 -47.265888 90.126129
14 86.637497 -14.123976 -20.424902 -141.258987 52.537949 -47.363300 90.126129
[L_front_hand01_02]
13 71.020905 -0.000179 0.000030 0.000315 -0.002326 -105.414528 71.020905
14 71.020905 -0.000179 0.000030 0.000315 -0.002326 -105.409866 71.020905
[L_front_hand02_02]
13 71.020927 -0.000119 0.000060 0.000315 -0.002326 -105.414528 71.020927
14 71.020927 -0.000119 0.000060 0.000315 -0.002326 -105.409866 71.020927
[L_front_hand03_02]
13 71.020905 -0.000060 0.000060 0.000315 -0.002326 -105.414528 71.020905
14 71.020905 -0.000060 0.000060 0.000315 -0.002326 -105.409866 71.020905
[R_forearm]
13 322.776428 -0.000060 0.000030 0.201059 0.068311 -109.855377 322.776428
14 322.776428 -0.000060 0.000030 0.201055 0.068322 -109.861427 322.776428
[R_front_hand]
13 238.847015 -0.006795 2.210259 -2.635298 -10.645461 -26.312506 238.857239
14 238.847015 -0.006795 2.210259 -2.635298 -10.645461 -26.312506 238.857239
[R_weapon_bone]
13 155.664093 0.002503 -0.000030 0.003487 0.001180 -90.988930 155.664078
14 155.664093 0.002503 -0.000030 0.003487 0.001180 -90.988930 155.664078
[R_front_hand01_01]
13 87.624611 14.231146 22.918642 -139.406311 -53.422413 43.599293 91.683487
14 87.624611 14.231146 22.918642 -138.707092 -52.961746 42.720669 91.683487
[R_front_hand02_01]
13 89.356956 14.367283 -19.491137 140.210251 51.852013 46.267590 92.579636
14 89.356956 14.367283 -19.491137 139.537384 51.404167 45.405891 92.579636
[R_front_hand03_01]
13 87.286232 -22.307278 -0.143439 0.071981 -0.448622 -63.915920 90.091743
14 87.286232 -22.307278 -0.143439 0.065057 -0.451640 -63.223511 90.091743
[R_front_hand01_02]
13 71.020905 0.000060 0.000119 0.002323 -0.000334 106.381714 71.020905
14 71.020905 0.000060 0.000119 0.002323 -0.000334 106.381714 71.020905
[R_front_hand02_02]
13 71.020844 -0.000030 -0.000119 0.002323 -0.000334 106.381714 71.020836
14 71.020844 -0.000030 -0.000119 0.002323 -0.000334 106.381714 71.020836
[R_front_hand03_02]
13 71.020905 0.000000 0.000030 0.002323 -0.000334 106.381714 71.020905
14 71.020905 0.000000 0.000030 0.002323 -0.000334 106.381714 71.020905
[null_rope01_connect]
13 328.732483 0.000000 -0.000238 -164.066833 -66.602341 -110.170799 328.732483
14 328.732483 0.000000 -0.000238 -164.727768 -66.694595 -109.571434 328.732483
[Rope1_Seg01]
13 -0.000011 -0.000118 0.000107 105.057709 -3.210860 -81.203033 0.000160
14 -0.000012 -0.000125 0.000103 104.819969 -3.543887 -82.206863 0.000162
[Rope1_Seg02]
13 139.999863 -0.000179 0.000000 -2.121708 -0.670312 -2.355524 139.999863
14 139.999863 -0.000179 0.000000 -1.959335 -0.132683 -2.647581 139.999863
[Rope1_Seg03]
13 139.999924 0.000060 -0.000060 -2.380977 -0.976841 -2.560557 139.999924
14 139.999924 0.000060 -0.000060 -2.170525 -0.384625 -2.890071 139.999924
[Rope1_Seg04]
13 139.999924 -0.000060 -0.000119 -1.468832 -0.193940 -2.137640 139.999924
14 139.999924 -0.000060 -0.000119 -1.256044 0.297226 -2.370900 139.999924
[Rope1_Seg05]
13 139.999832 0.000119 -0.000060 0.918716 1.177198 0.199054 139.999832
14 139.999832 0.000119 -0.000060 0.889476 1.107550 0.257563 139.999832
[Rope1_Seg06]
13 139.999954 0.000119 -0.000060 0.308309 0.456655 0.002888 139.999954
14 139.999954 0.000119 -0.000060 0.293485 0.441807 0.007736 139.999954
[Rope1_Seg07]
13 139.999985 0.000060 0.000000 0.110323 0.224284 -0.072307 139.999985
14 139.999985 0.000060 0.000000 0.110310 0.229234 -0.077248 139.999985
[Rope1_Seg09]
13 121.602913 0.000119 -0.000089 -89.793175 -1.359789 0.847147 121.602913
14 121.602913 0.000119 -0.000089 -89.793175 -1.359789 0.847147 121.602913
[L_mid_hand01]
13 103.859421 1.038730 8.195221 112.987701 -50.601227 -18.681456 104.187431
14 103.859421 1.038730 8.195221 115.405022 -54.702587 -21.718943 104.187431
[L_mid_hand02]
13 105.572853 -4.139662 -10.864139 -153.018723 36.866009 -49.082401 106.211075
14 105.572853 -4.139662 -10.864139 -156.173538 38.796780 -54.226360 106.211075
[L_mid_hand03]
13 104.641464 17.579376 -3.913581 -11.755013 14.733717 54.618225 106.179977
14 104.641464 17.579376 -3.913581 -10.557026 15.605444 59.191402 106.179977
[null_rope02_connect]
13 328.732849 0.000179 -0.000119 -156.141739 73.776634 -50.237988 328.732849
14 328.732849 0.000179 -0.000119 -157.521561 74.087540 -51.566971 328.732849
[Rope2_Seg01]
13 0.000088 -0.000011 0.000000 -42.973392 -1.391703 -93.365852 0.000088
14 0.000089 -0.000022 0.000000 -43.384647 -2.066691 -93.106224 0.000091
[Rope2_Seg02]
13 139.999741 -0.000060 -0.000119 3.138689 6.561577 1.995476 139.999756
14 139.999741 -0.000060 -0.000119 2.887127 7.200809 1.353247 139.999756
[Rope2_Seg03]
13 140.000107 0.000030 0.000000 3.931703 9.099099 3.531882 140.000107
14 140.000107 0.000030 0.000000 3.467927 9.458044 2.711659 140.000107
[Rope2_Seg04]
13 139.999802 0.000000 -0.000060 -1.929547 -3.928968 -2.723827 139.999802
14 139.999802 0.000000 -0.000060 -1.673516 -3.508623 -2.510634 139.999802
[Rope2_Seg05]
13 139.999985 -0.000060 0.000119 -4.082237 -8.067169 -4.439621 139.999985
14 139.999985 -0.000060 0.000119 -3.520392 -7.759888 -3.802231 139.999985
[Rope2_Seg06]
13 139.999893 -0.000030 -0.000119 -1.831640 -2.629855 -1.826577 139.999893
14 139.999893 -0.000030 -0.000119 -1.586471 -2.518414 -1.576356 139.999893
[Rope2_Seg07]
13 139.999893 0.000060 -0.000060 -1.214229 -1.553944 -1.164087 139.999893
14 139.999893 0.000060 -0.000060 -1.053735 -1.486493 -1.003623 139.999893
[Rope2_Seg09]
13 121.338966 0.000089 -0.000060 33.793236 -1.359788 -0.847141 121.338966
14 121.338966 0.000089 -0.000060 33.793236 -1.359788 -0.847141 121.338966
[R_mid_hand01]
13 104.680779 11.144459 -10.335981 -37.204079 31.906813 37.576260 105.778534
14 104.680779 11.144459 -10.335981 -36.578453 32.644390 38.740570 105.778534
[R_mid_hand02]
13 104.070427 2.443552 8.231699 70.367462 -42.427391 14.067809 104.424065
14 104.070427 2.443552 8.231699 69.973366 -43.581707 14.639650 104.424065
[R_mid_hand03]
13 106.028137 -11.221827 -5.996406 -169.893616 12.226661 -47.211018 106.788818
14 106.028137 -11.221827 -5.996406 -170.161224 12.441347 -48.449886 106.788818
[spine02]
13 129.756927 0.001550 0.000119 0.538614 -4.023778 -15.474613 129.756927
14 129.756927 0.001550 0.000119 0.539668 -4.023637 -15.504617 129.756927
[spine03]
13 78.613991 0.081635 -4.899008 2.000257 3.776486 18.067289 78.766525
14 78.613983 0.081635 -4.899009 2.000918 3.776135 18.087353 78.766518
[pelvis]
13 169.435242 0.051022 0.000000 -0.070433 -0.177696 17.333202 169.435257
14 169.435242 0.051022 0.000000 -0.070464 -0.177683 17.353209 169.435257
[null_rope03_connect]
13 -1.257226 -2.466202 137.391083 0.000000 -89.531868 58.796303 137.418976
14 -1.257226 -2.466202 137.391083 0.000000 -89.532700 58.772221 137.418976
[null_rope04_connect]
13 -1.259640 -2.480268 -137.844437 0.000000 -89.531868 58.796303 137.872513
14 -1.259640 -2.480268 -137.844437 0.000000 -89.532700 58.772221 137.872513
[Rope3_Seg01]
13 0.000010 0.000038 -0.000114 15.853690 20.500841 -84.010963 0.000121
14 0.000010 0.000038 -0.000114 15.187621 20.557121 -85.887566 0.000121
[Rope3_Seg02]
13 139.999924 -0.000119 0.000060 0.082074 -1.930537 -5.943001 139.999924
14 139.999924 -0.000119 0.000060 0.069266 -2.124236 -5.512191 139.999924
[Rope3_Seg03]
13 139.999924 -0.000119 0.000119 -0.238721 -1.508148 -6.572203 139.999924
14 139.999924 -0.000119 0.000119 -0.220115 -1.739092 -6.269997 139.999924
[Rope3_Seg04]
13 139.999924 0.000119 0.000000 -2.113119 0.163581 -11.670588 139.999924
14 139.999924 0.000119 0.000000 -2.042182 -0.387598 -11.481603 139.999924
[Rope3_Seg05]
13 139.999924 -0.000238 0.000060 1.756790 -3.263431 2.846660 139.999924
14 139.999924 -0.000238 0.000060 1.978569 -3.141419 3.728573 139.999924
[Rope3_Seg06]
13 139.999893 -0.000119 -0.000060 3.593453 -6.990521 18.293898 139.999893
14 139.999893 -0.000119 -0.000060 3.567643 -5.826357 19.290602 139.999893
[Rope3_Seg07]
13 139.999771 0.000060 -0.000119 0.977982 -4.163854 13.100162 139.999771
14 139.999771 0.000060 -0.000119 0.826701 -3.189709 13.059157 139.999771
[Rope3_Seg08]
13 139.999985 -0.000060 0.000000 0.253313 -2.233479 6.911375 139.999985
14 139.999985 -0.000060 0.000000 0.155605 -1.722084 6.893605 139.999985
[Rope3_Seg09]
13 90.185997 -0.000179 -0.000060 89.793228 -1.359877 -0.847183 90.185997
14 90.185997 -0.000179 -0.000060 89.793228 -1.359877 -0.847183 90.185997
[R_rear_hand01]
13 103.366196 -6.073594 -10.757982 -165.129318 19.906286 -41.459824 104.101845
14 103.366196 -6.073594 -10.757982 -166.165070 20.624767 -44.436901 104.101845
[R_rear_hand02]
13 100.509819 12.039542 -7.992327 -30.361929 25.330688 39.162518 101.543350
14 100.509819 12.039542 -7.992327 -29.134808 26.762827 41.953499 101.543350
[R_rear_hand03]
13 101.539970 5.215704 5.435467 82.326164 -42.112484 9.027008 101.819031
14 101.539970 5.215704 5.435467 81.948593 -44.972103 9.574173 101.819031
[Rope4_Seg01]
13 0.000010 0.000038 -0.000114 -92.425354 32.098427 -85.771355 0.000121
14 0.000010 0.000038 -0.000114 -92.368011 32.493317 -85.778587 0.000121
[Rope4_Seg02]
13 139.999985 0.000060 0.000119 -0.521261 0.153094 -5.896963 139.999985
14 139.999985 0.000060 0.000119 -0.556929 0.159152 -6.318038 139.999985
[Rope4_Seg03]
13 139.999924 0.000000 -0.000238 -0.748514 0.235004 -5.972158 139.999924
14 139.999924 0.000000 -0.000238 -0.825154 0.257568 -6.418287 139.999924
[Rope4_Seg04]
13 139.999985 0.000000 0.000119 -1.103461 0.990596 -6.352017 139.999985
14 139.999985 0.000000 0.000119 -1.262473 1.233159 -6.950837 139.999985
[Rope4_Seg05]
13 139.999802 -0.000060 -0.000119 -0.955482 -0.072490 -5.326361 139.999802
14 139.999802 -0.000060 -0.000119 -1.015694 -0.156715 -5.573163 139.999802
[Rope4_Seg06]
13 139.999924 0.000000 0.000060 -0.460621 -1.629721 -3.330961 139.999924
14 139.999924 0.000000 0.000060 -0.381762 -2.205955 -3.216617 139.999924
[Rope4_Seg07]
13 139.999802 0.000000 0.000000 -0.437784 -1.290039 -2.713989 139.999802
14 139.999802 0.000000 0.000000 -0.376819 -1.812832 -2.658693 139.999802
[Rope4_Seg08]
13 139.999924 0.000000 0.000119 -2.007935 -0.653720 -2.109079 139.999924
14 139.999924 0.000000 0.000119 -2.015595 -0.941425 -2.143593 139.999924
[Rope4_Seg09]
13 90.185791 0.000060 0.000060 -135.617828 2.228885 0.850567 90.185791
14 90.185791 0.000060 0.000060 -135.617828 2.228885 0.850567 90.185791
[L_rear_hand01]
13 101.696655 -8.392275 -7.654577 -23.837065 -31.497852 127.196877 102.329041
14 101.696655 -8.392275 -7.654577 -21.399752 -33.105400 122.636459 102.329041
[L_rear_hand02]
13 102.726799 -1.568258 5.773216 79.940979 55.428272 167.825531 102.900848
14 102.726799 -1.568258 5.773216 78.723900 59.531788 166.383713 102.900848
[L_rear_hand03]
13 104.552910 9.721220 -10.420293 -170.300186 -22.788525 -124.407036 105.519653
14 104.552910 9.721220 -10.420293 -172.062332 -23.429153 -119.922249 105.519653
